<?xml version="1.0" encoding="UTF-8" standalone="no"?>
<svg
   xmlns:dc="http://purl.org/dc/elements/1.1/"
   xmlns:cc="http://creativecommons.org/ns#"
   xmlns:rdf="http://www.w3.org/1999/02/22-rdf-syntax-ns#"
   xmlns:svg="http://www.w3.org/2000/svg"
   xmlns="http://www.w3.org/2000/svg"
   xmlns:sodipodi="http://sodipodi.sourceforge.net/DTD/sodipodi-0.dtd"
   xmlns:inkscape="http://www.inkscape.org/namespaces/inkscape"
   width="334.235mm"
   height="334.235mm"
   version="1.2"
   viewBox="0 0 334.235 334.235"
   id="svg23"
   sodipodi:docname="gearFactoryIco.svg"
   inkscape:version="0.92.0 r">
  <metadata
     id="metadata29">
    <rdf:RDF>
      <cc:Work
         rdf:about="">
        <dc:format>image/svg+xml</dc:format>
        <dc:type
           rdf:resource="http://purl.org/dc/dcmitype/StillImage" />
        <dc:title>Gear factory</dc:title>
      </cc:Work>
    </rdf:RDF>
  </metadata>
  <defs
     id="defs27" />
  <sodipodi:namedview
     pagecolor="#ffffff"
     bordercolor="#666666"
     borderopacity="1"
     objecttolerance="10"
     gridtolerance="10"
     guidetolerance="10"
     inkscape:pageopacity="0"
     inkscape:pageshadow="2"
     inkscape:window-width="1280"
     inkscape:window-height="646"
     id="namedview25"
     showgrid="false"
     inkscape:zoom="2.8373236"
     inkscape:cx="-47.840674"
     inkscape:cy="36.201423"
     inkscape:window-x="0"
     inkscape:window-y="0"
     inkscape:window-maximized="1"
     inkscape:current-layer="svg23" />
  <title
     id="title2">Gear factory</title>
  <desc
     id="desc4">File created by Gear Factory.</desc>
  <g
     id="g4845">
    <rect
       y="317.30167"
       x="-1.110223e-16"
       height="16.933334"
       width="16.933334"
       id="rect847"
       style="fill:#006496;fill-opacity:1;stroke:none;stroke-width:4.24250841;stroke-linecap:butt;stroke-linejoin:round;stroke-miterlimit:4;stroke-dasharray:none;stroke-dashoffset:0;stroke-opacity:1" />
    <g
       style="stroke:#ffffff;stroke-opacity:1;stroke-width:7.52676962;stroke-miterlimit:4;stroke-dasharray:none"
       transform="matrix(0.03515231,0,0,0.03515231,6.0061105,316.11034)"
       id="g1111">
      <g
         style="stroke:#ffffff;stroke-opacity:1;stroke-width:7.52676962;stroke-miterlimit:4;stroke-dasharray:none"
         id="wheel1-3"
         class="wheel"
         transform="translate(-162.83289,155.8053)">
        <g
           style="stroke:#ffffff;stroke-opacity:1;stroke-width:7.52676962;stroke-miterlimit:4;stroke-dasharray:none"
           id="g1023"
           class="frame">
          <path
             id="path1021"
             d="m 334.003,158.313 a 167.118,167.118 0 0 1 0,17.609 v 0 l -2.515,1.037 -2.286,0.844 -2.071,0.68 -1.865,0.54 -1.67,0.421 -1.483,0.321 -1.305,0.238 -1.134,0.168 -0.969,0.111 -0.81,0.068 -0.656,0.034 -0.505,0.01 -0.359,-0.004 -0.214,-0.009 -6.364,-0.565 a 143.244,143.244 0 0 1 -3.059,19.313 l 6.228,1.43 0.206,0.057 0.342,0.108 0.477,0.166 0.613,0.234 0.75,0.315 0.887,0.406 1.027,0.51 1.168,0.629 1.311,0.763 1.458,0.917 1.607,1.09 1.759,1.287 1.914,1.509 2.071,1.763 a 167.118,167.118 0 0 1 -5.441,16.747 v 0 l -2.712,0.209 -2.436,0.096 -2.179,0.007 -1.941,-0.063 -1.718,-0.115 -1.51,-0.153 -1.314,-0.177 -1.131,-0.191 -0.956,-0.193 -0.791,-0.186 -0.634,-0.171 -0.484,-0.146 -0.34,-0.115 -0.201,-0.074 -5.878,-2.504 a 143.244,143.244 0 0 1 -8.877,17.423 l 5.481,3.283 0.178,0.119 0.292,0.208 0.403,0.305 0.511,0.413 0.616,0.53 0.718,0.661 0.819,0.802 0.916,0.959 1.011,1.132 1.104,1.322 1.191,1.533 1.276,1.767 1.353,2.027 1.426,2.317 a 167.118,167.118 0 0 1 -10.35,14.246 v 0 l -2.644,-0.639 -2.346,-0.661 -2.075,-0.667 -1.827,-0.66 -1.598,-0.64 -1.389,-0.612 -1.195,-0.575 -1.016,-0.531 -0.85,-0.479 -0.695,-0.422 -0.55,-0.358 -0.415,-0.289 -0.288,-0.213 -0.168,-0.133 -4.817,-4.198 a 143.244,143.244 0 0 1 -13.826,13.827 l 4.198,4.817 0.133,0.167 0.213,0.288 0.289,0.415 0.358,0.55 0.422,0.695 0.479,0.85 0.531,1.016 0.575,1.196 0.612,1.388 0.641,1.599 0.659,1.826 0.667,2.075 0.661,2.346 0.64,2.644 a 167.118,167.118 0 0 1 -14.245,10.35 v 0 l -2.317,-1.425 -2.028,-1.353 -1.767,-1.276 -1.533,-1.191 -1.322,-1.103 -1.132,-1.012 -0.959,-0.916 -0.802,-0.818 -0.661,-0.719 -0.53,-0.616 -0.413,-0.51 -0.306,-0.403 -0.207,-0.292 -0.119,-0.178 -3.284,-5.481 a 143.244,143.244 0 0 1 -17.422,8.878 l 2.504,5.878 0.075,0.2 0.114,0.34 0.146,0.484 0.171,0.634 0.186,0.791 0.194,0.957 0.19,1.13 0.178,1.314 0.153,1.51 0.115,1.718 0.063,1.941 -0.007,2.18 -0.096,2.435 -0.209,2.712 a 167.118,167.118 0 0 1 -16.746,5.442 v 0 l -1.763,-2.071 -1.51,-1.914 -1.287,-1.759 -1.09,-1.607 -0.916,-1.458 -0.764,-1.311 -0.629,-1.168 -0.51,-1.026 -0.406,-0.887 -0.315,-0.75 -0.235,-0.613 -0.166,-0.478 -0.107,-0.342 -0.058,-0.206 -1.429,-6.227 a 143.244,143.244 0 0 1 -19.313,3.06 l 0.565,6.364 0.009,0.214 0.004,0.358 -0.01,0.505 -0.034,0.656 -0.068,0.81 -0.111,0.969 -0.168,1.134 -0.238,1.305 -0.321,1.484 -0.421,1.669 -0.54,1.866 -0.68,2.07 -0.844,2.287 -1.036,2.515 a 167.118,167.118 0 0 1 -17.609,0.001 v 0 l -1.037,-2.515 -0.844,-2.287 -0.68,-2.07 -0.54,-1.866 -0.422,-1.669 -0.321,-1.483 -0.237,-1.305 -0.168,-1.134 -0.112,-0.969 -0.068,-0.811 -0.033,-0.655 -0.011,-0.506 0.004,-0.358 0.009,-0.214 0.564,-6.364 a 143.244,143.244 0 0 1 -19.313,-3.058 l -1.429,6.227 -0.057,0.206 -0.108,0.342 -0.166,0.478 -0.234,0.613 -0.315,0.75 -0.406,0.887 -0.51,1.026 -0.629,1.168 -0.763,1.312 -0.917,1.458 -1.09,1.607 -1.286,1.759 -1.51,1.914 -1.763,2.071 a 167.118,167.118 0 0 1 -16.746,-5.44 v 0 l -0.21,-2.712 -0.096,-2.436 -0.007,-2.179 0.063,-1.941 0.115,-1.718 0.153,-1.51 0.177,-1.315 0.191,-1.13 0.193,-0.956 0.186,-0.791 0.171,-0.635 0.146,-0.484 0.114,-0.339 0.075,-0.201 2.503,-5.878 a 143.244,143.244 0 0 1 -17.4229,-8.876 l -3.2833,5.481 -0.1185,0.178 -0.2076,0.292 -0.3054,0.403 -0.4128,0.511 -0.5307,0.615 -0.66,0.719 -0.8024,0.819 -0.959,0.916 -1.1315,1.011 -1.3222,1.103 -1.5331,1.192 -1.7671,1.276 -2.0271,1.354 -2.3168,1.425 A 167.118,167.118 0 0 1 61.9104,296.963 v 0 l 0.6392,-2.644 0.6609,-2.347 0.6669,-2.074 0.6593,-1.827 0.6405,-1.598 0.6119,-1.389 0.575,-1.195 0.5305,-1.016 0.4792,-0.85 0.4216,-0.695 0.3581,-0.551 0.2887,-0.415 0.2137,-0.287 0.1327,-0.168 4.1975,-4.817 A 143.244,143.244 0 0 1 59.1585,261.264 l -4.8163,4.198 -0.1678,0.133 -0.2877,0.214 -0.4149,0.289 -0.5504,0.358 -0.695,0.421 -0.8498,0.48 -1.016,0.53 -1.1952,0.576 -1.3887,0.612 -1.5984,0.64 -1.8263,0.66 -2.0748,0.667 -2.3463,0.661 -2.6437,0.64 A 167.118,167.118 0 0 1 26.9361,258.098 h 10e-5 l 1.4248,-2.317 1.3536,-2.027 1.2754,-1.767 1.1914,-1.534 1.1031,-1.322 1.0112,-1.132 0.9161,-0.959 0.8185,-0.802 0.7184,-0.66 0.6158,-0.531 0.5106,-0.413 0.4029,-0.306 0.2921,-0.207 0.178,-0.119 5.4805,-3.284 A 143.244,143.244 0 0 1 35.35,223.296 l -5.8778,2.505 -0.2006,0.074 -0.3396,0.114 -0.4839,0.147 -0.6342,0.17 -0.7912,0.187 -0.9564,0.193 -1.1303,0.191 -1.3144,0.177 -1.5098,0.154 -1.7182,0.115 -1.9407,0.063 -2.1794,-0.007 -2.4358,-0.096 -2.712,-0.209 A 167.118,167.118 0 0 1 5.68298,210.328 v 0 l 2.07108,-1.763 1.91385,-1.51 1.75899,-1.287 1.607,-1.09 1.4577,-0.916 1.3113,-0.764 1.1677,-0.629 1.0265,-0.511 0.8872,-0.405 0.7496,-0.315 0.6132,-0.235 0.4776,-0.166 0.3419,-0.107 0.206,-0.058 6.2271,-1.43 A 143.244,143.244 0 0 1 24.4391,179.83 l -6.364,0.565 -0.2138,0.009 -0.3583,0.004 -0.5055,-0.011 -0.6558,-0.033 -0.8101,-0.068 -0.9693,-0.111 -1.1339,-0.168 -1.3049,-0.237 -1.4833,-0.321 -1.66977,-0.421 -1.86522,-0.54 -2.07066,-0.68 -2.28688,-0.844 -2.514775,-1.037 A 167.118,167.118 0 0 1 0.231262,158.329 v 0 l 2.514568,-1.037 2.28673,-0.845 2.07053,-0.68 1.86513,-0.54 1.66968,-0.421 1.4832,-0.322 1.3049,-0.237 1.1339,-0.168 0.9692,-0.112 0.8102,-0.068 0.6557,-0.033 0.5055,-0.011 0.3584,0.004 0.2137,0.009 6.3642,0.564 a 143.244,143.244 0 0 1 3.057,-19.313 l -6.2274,-1.429 -0.206,-0.058 -0.342,-0.107 -0.4775,-0.166 -0.6133,-0.235 -0.7497,-0.314 -0.8873,-0.406 -1.0265,-0.51 -1.1678,-0.629 -1.3115,-0.763 -1.4579,-0.917 -1.6071,-1.089 L 9.66052,127.209 7.74637,125.7 5.67499,123.937 A 167.118,167.118 0 0 1 11.1146,107.19 v 0 l 2.712,-0.21 2.4357,-0.096 2.1794,-0.007 1.9408,0.062 1.7181,0.116 1.51,0.152 1.3144,0.178 1.1303,0.19 0.9564,0.193 0.7913,0.187 0.6341,0.17 0.484,0.146 0.3396,0.115 0.2006,0.074 5.8783,2.503 A 143.244,143.244 0 0 1 44.215,93.5398 L 38.7339,90.2568 38.5558,90.1382 38.2637,89.9306 37.8608,89.6252 37.35,89.2125 36.7342,88.6819 36.0157,88.0218 35.197,87.2195 34.2807,86.2606 33.2693,85.1291 32.166,83.8069 l -1.1917,-1.5331 -1.2757,-1.767 -1.354,-2.027 -1.4253,-2.3167 A 167.118,167.118 0 0 1 37.2677,61.9164 v 0 l 2.6439,0.639 2.3464,0.6609 2.0749,0.6667 1.8264,0.6593 1.5985,0.6404 1.3888,0.6119 1.1953,0.5749 1.0162,0.5304 0.8498,0.4792 0.6951,0.4216 0.5504,0.358 0.4151,0.2888 0.2877,0.2136 0.1678,0.1327 4.8171,4.1972 A 143.244,143.244 0 0 1 72.9661,59.1628 L 68.7677,54.3467 68.635,54.1789 68.4213,53.8913 68.1325,53.4763 67.7743,52.926 67.3525,52.231 66.8731,51.3812 66.3425,50.3652 65.7673,49.17 65.1551,47.7814 64.5143,46.183 63.8546,44.3567 63.1874,42.282 62.526,39.9358 61.8864,37.292 A 167.118,167.118 0 0 1 76.1307,26.9403 v 0 l 2.317,1.4247 2.0274,1.3536 1.7673,1.2753 1.5334,1.1913 1.3223,1.103 1.1318,1.0111 0.9591,0.9162 0.8025,0.8185 0.6603,0.7183 0.5307,0.6157 0.4129,0.5106 0.3055,0.4029 0.2076,0.2921 0.1186,0.178 3.2843,5.4804 a 143.244,143.244 0 0 1 17.4216,-8.8794 l -2.505,-5.8777 -0.074,-0.2006 -0.115,-0.3396 -0.146,-0.4839 -0.171,-0.6341 -0.186,-0.7913 -0.193,-0.9563 -0.191,-1.1303 -0.178,-1.3144 -0.153,-1.5099 -0.115,-1.7181 -0.063,-1.9408 0.006,-2.1793 0.096,-2.4358 0.209,-2.7121 A 167.118,167.118 0 0 1 123.9,5.68497 v 0 l 1.763,2.071 1.51,1.91377 1.287,1.75896 1.09,1.6069 0.917,1.4577 0.763,1.3113 0.63,1.1677 0.51,1.0264 0.406,0.8871 0.314,0.7497 0.235,0.6132 0.166,0.4775 0.108,0.342 0.057,0.2059 1.43,6.2271 a 143.244,143.244 0 0 1 19.313,-3.0615 l -0.566,-6.364 -0.009,-0.2138 -0.003,-0.3583 0.01,-0.5055 0.034,-0.6558 0.067,-0.8101 0.111,-0.9693 0.168,-1.1339 0.237,-1.3049 0.321,-1.4834 0.421,-1.66972 0.54,-1.86527 0.68,-2.07066 0.844,-2.28693 1.036,-2.514828 a 167.118,167.118 0 0 1 17.609,-0.002435 v -7e-6 l 1.037,2.51454 0.844,2.2867 0.681,2.07048 0.54,1.86511 0.421,1.66962 0.322,1.4832 0.237,1.3049 0.168,1.1339 0.112,0.9692 0.068,0.8102 0.034,0.6557 0.01,0.5055 -0.004,0.3583 -0.008,0.2138 -0.564,6.3642 a 143.244,143.244 0 0 1 19.313,3.0561 l 1.428,-6.2275 0.058,-0.2059 0.107,-0.342 0.166,-0.4776 0.235,-0.6133 0.314,-0.7497 0.406,-0.8873 0.51,-1.0265 0.629,-1.1679 0.763,-1.3115 0.917,-1.4579 1.089,-1.6072 1.287,-1.75934 1.509,-1.91418 1.763,-2.07151 a 167.118,167.118 0 0 1 16.747,5.43883 v 0 l 0.21,2.712 0.096,2.4357 0.007,2.1794 -0.062,1.9408 -0.115,1.7182 -0.153,1.5099 -0.177,1.3144 -0.191,1.1304 -0.193,0.9563 -0.186,0.7913 -0.17,0.6342 -0.147,0.4839 -0.114,0.3397 -0.074,0.2006 -2.503,5.8784 a 143.244,143.244 0 0 1 17.424,8.8746 l 3.282,-5.4813 0.119,-0.1781 0.208,-0.2921 0.305,-0.403 0.413,-0.5107 0.53,-0.6159 0.66,-0.7185 0.803,-0.8187 0.958,-0.9164 1.132,-1.0114 1.322,-1.1034 1.533,-1.1918 1.767,-1.2758 2.027,-1.354 2.317,-1.4254 a 167.118,167.118 0 0 1 14.247,10.3477 v 0 l -0.639,2.6439 -0.661,2.3465 -0.667,2.0748 -0.659,1.8266 -0.64,1.5985 -0.612,1.3888 -0.575,1.1953 -0.53,1.0162 -0.479,0.8499 -0.422,0.6951 -0.358,0.5505 -0.288,0.415 -0.214,0.2877 -0.133,0.1678 -4.197,4.8173 a 143.244,143.244 0 0 1 13.829,13.8243 l 4.816,-4.1986 0.168,-0.1327 0.287,-0.2137 0.415,-0.2889 0.551,-0.3582 0.695,-0.4218 0.849,-0.4794 1.016,-0.5307 1.195,-0.5752 1.389,-0.6123 1.598,-0.6409 1.827,-0.6597 2.074,-0.6674 2.347,-0.6614 2.643,-0.6398 a 167.118,167.118 0 0 1 10.353,14.2438 v 0 l -1.425,2.3171 -1.353,2.0275 -1.276,1.7673 -1.191,1.5334 -1.103,1.3224 -1.011,1.1318 -0.916,0.9592 -0.818,0.8026 -0.719,0.6602 -0.615,0.5308 -0.511,0.4129 -0.403,0.3055 -0.292,0.2077 -0.178,0.1186 -5.48,3.2846 a 143.244,143.244 0 0 1 8.88,17.4213 l 5.878,-2.505 0.2,-0.075 0.34,-0.114 0.484,-0.147 0.634,-0.17 0.791,-0.187 0.956,-0.193 1.131,-0.191 1.314,-0.178 1.51,-0.153 1.718,-0.115 1.941,-0.063 2.179,0.006 2.436,0.096 2.712,0.208 a 167.118,167.118 0 0 1 5.444,16.746 v 0 l -2.071,1.763 -1.913,1.51 -1.759,1.287 -1.607,1.091 -1.458,0.916 -1.311,0.764 -1.168,0.63 -1.026,0.51 -0.887,0.406 -0.75,0.314 -0.613,0.235 -0.478,0.166 -0.342,0.108 -0.205,0.057 -6.227,1.431 a 143.244,143.244 0 0 1 3.062,19.312 l 6.364,-0.566 0.214,-0.009 0.358,-0.003 0.505,0.01 0.656,0.033 0.81,0.068 0.97,0.111 1.134,0.168 1.305,0.237 1.483,0.321 1.67,0.421 1.865,0.54 2.071,0.679 2.287,0.844 2.515,1.036 z"
             inkscape:connector-curvature="0"
             style="fill:none;stroke:#ffffff;stroke-width:7.52676962;stroke-opacity:1;stroke-miterlimit:4;stroke-dasharray:none" />
        </g>
        <g
           style="stroke:#ffffff;stroke-opacity:1;stroke-width:7.52676962;stroke-miterlimit:4;stroke-dasharray:none"
           id="g1031"
           class="lighteningHoles">
          <path
             id="path1025"
             d="m 201.487,182.118 a 37.5,37.5 0 0 1 -38.561,22.265 l -38.934,67.445 a 113.244,113.244 0 0 0 155.371,-89.71 z"
             inkscape:connector-curvature="0"
             style="fill:none;stroke:#ffffff;stroke-width:7.52676962;stroke-opacity:1;stroke-miterlimit:4;stroke-dasharray:none" />
          <path
             id="path1027"
             d="M 136.944,189.384 A 37.5,37.5 0 0 1 136.94,144.857 L 97.9932,77.4184 A 113.244,113.244 0 0 0 98.0098,256.83 Z"
             inkscape:connector-curvature="0"
             style="fill:none;stroke:#ffffff;stroke-width:7.52676962;stroke-opacity:1;stroke-miterlimit:4;stroke-dasharray:none" />
          <path
             id="path1029"
             d="m 162.919,129.853 a 37.5,37.5 0 0 1 38.565,22.258 l 77.877,-0.014 A 113.244,113.244 0 0 0 123.972,62.4152 Z"
             inkscape:connector-curvature="0"
             style="fill:none;stroke:#ffffff;stroke-width:7.52676962;stroke-opacity:1;stroke-miterlimit:4;stroke-dasharray:none" />
        </g>
        <circle
           id="circle1033"
           r="15"
           cy="167.118"
           cx="167.118"
           style="fill:none;stroke:#ffffff;stroke-width:7.52676962;stroke-opacity:1;stroke-miterlimit:4;stroke-dasharray:none" />
        <path
           id="path1035"
           d="m 144.618,167.118 h 45 m -22.5,-22.5 v 45"
           inkscape:connector-curvature="0"
           style="fill:none;stroke:#ffffff;stroke-width:7.52676962;stroke-opacity:1;stroke-miterlimit:4;stroke-dasharray:none" />
      </g>
      <g
         style="stroke:#ffffff;stroke-opacity:1;stroke-width:7.52676962;stroke-miterlimit:4;stroke-dasharray:none"
         id="wheel2"
         class="wheel"
         transform="translate(95.919404,59.453296)">
        <g
           style="stroke:#ffffff;stroke-opacity:1;stroke-width:7.52676962;stroke-miterlimit:4;stroke-dasharray:none"
           id="g1061"
           class="frame">
          <path
             id="path1059"
             d="m 206.528,94.6009 a 103.454,103.454 0 0 1 0,17.7061 v 0 l -2.05,0.897 -1.85,0.715 -1.663,0.561 -1.488,0.434 -1.322,0.329 -1.168,0.242 -1.021,0.171 -0.882,0.114 -0.75,0.069 -0.624,0.034 -0.503,0.01 -0.387,-0.006 -0.273,-0.014 -0.162,-0.013 -10.114,-1.409 a 79.5798,79.5798 0 0 1 -5.065,18.905 l 9.463,3.837 0.148,0.069 0.243,0.125 0.337,0.188 0.431,0.26 0.523,0.342 0.615,0.435 0.708,0.54 0.798,0.658 0.89,0.793 0.981,0.946 1.071,1.12 1.16,1.318 1.245,1.543 1.327,1.803 a 103.454,103.454 0 0 1 -8.853,15.333 v 0 l -2.224,-0.247 -1.959,-0.307 -1.721,-0.345 -1.506,-0.368 -1.309,-0.376 -1.132,-0.375 -0.97,-0.362 -0.821,-0.342 -0.684,-0.316 -0.558,-0.282 -0.441,-0.243 -0.331,-0.198 -0.23,-0.148 -0.134,-0.093 -8.054,-6.277 a 79.5798,79.5798 0 0 1 -13.839,13.84 l 6.277,8.054 0.093,0.134 0.148,0.229 0.199,0.332 0.243,0.44 0.282,0.558 0.315,0.684 0.342,0.821 0.363,0.97 0.374,1.132 0.377,1.31 0.368,1.505 0.345,1.721 0.307,1.959 0.247,2.224 a 103.454,103.454 0 0 1 -15.333,8.854 v 0 l -1.803,-1.327 -1.543,-1.245 -1.318,-1.159 -1.12,-1.071 -0.946,-0.981 -0.793,-0.891 -0.658,-0.798 -0.54,-0.707 -0.435,-0.615 -0.342,-0.524 -0.26,-0.43 -0.188,-0.338 -0.125,-0.243 -0.069,-0.147 -3.837,-9.463 a 79.5798,79.5798 0 0 1 -18.905,5.066 l 1.409,10.114 0.014,0.162 0.013,0.273 0.006,0.386 -0.01,0.503 -0.034,0.624 -0.069,0.751 -0.114,0.882 -0.171,1.021 -0.242,1.167 -0.329,1.323 -0.434,1.487 -0.561,1.663 -0.714,1.851 -0.898,2.05 a 103.454,103.454 0 0 1 -17.7053,0 v 0 l -0.898,-2.049 -0.7142,-1.851 -0.5614,-1.663 -0.4341,-1.487 -0.3288,-1.323 -0.2419,-1.167 -0.1711,-1.021 -0.114,-0.882 -0.069,-0.75 -0.0347,-0.625 -0.0099,-0.503 0.0059,-0.386 0.0137,-0.273 0.0138,-0.162 1.4081,-10.114 a 79.5798,79.5798 0 0 1 -18.9053,-5.065 l -3.8364,9.464 -0.0693,0.147 -0.1245,0.243 -0.188,0.338 -0.2601,0.431 -0.342,0.523 -0.4348,0.615 -0.5397,0.707 -0.6586,0.799 -0.7932,0.89 -0.9459,0.981 -1.1196,1.071 -1.3175,1.16 -1.5435,1.245 -1.8025,1.327 a 103.454,103.454 0 0 1 -15.3341,-8.852 v 0 l 0.2472,-2.224 0.3065,-1.96 0.3454,-1.721 0.3677,-1.505 0.3766,-1.31 0.3741,-1.132 0.3623,-0.969 0.3423,-0.821 0.3154,-0.685 0.282,-0.557 0.243,-0.441 0.1983,-0.332 0.1483,-0.229 0.0931,-0.134 6.2762,-8.055 A 79.5798,79.5798 0 0 1 40.6931,152.383 l -8.054,6.277 -0.1337,0.093 -0.2295,0.149 -0.3315,0.198 -0.4406,0.243 -0.5578,0.282 -0.6842,0.315 -0.821,0.343 -0.9696,0.362 -1.132,0.375 -1.3097,0.376 -1.5052,0.368 -1.7208,0.346 -1.9595,0.307 -2.2242,0.247 A 103.454,103.454 0 0 1 9.76577,147.331 v 0 l 1.32623,-1.802 1.2452,-1.544 1.1595,-1.318 1.071,-1.119 0.981,-0.946 0.89,-0.794 0.7986,-0.658 0.707,-0.54 0.6152,-0.435 0.5232,-0.342 0.4307,-0.26 0.3375,-0.188 0.2432,-0.125 0.1475,-0.069 9.4627,-3.838 a 79.5798,79.5798 0 0 1 -5.0672,-18.905 l -10.1136,1.41 -0.1623,0.014 -0.2729,0.013 -0.3863,0.006 -0.5031,-0.009 -0.6242,-0.035 -0.7502,-0.069 -0.8822,-0.114 -1.02097,-0.171 -1.16745,-0.242 -1.32264,-0.328 -1.48753,-0.434 -1.66307,-0.561 -1.8503,-0.714 -2.050038,-0.898 A 103.454,103.454 0 0 1 0.378661,94.6104 h 10e-7 L 2.42853,93.7124 4.2787,92.998 5.94167,92.4367 7.42912,92.0024 8.75169,91.6736 9.91911,91.4316 10.94,91.2604 l 0.8822,-0.114 0.7502,-0.069 0.6242,-0.0347 0.5031,-0.01 0.3863,0.006 0.2729,0.0137 0.1623,0.0137 10.1139,1.4077 A 79.5798,79.5798 0 0 1 29.6988,73.5682 L 20.2353,69.7322 20.0879,69.663 19.8446,69.5384 19.5071,69.3505 19.0763,69.0904 18.5531,68.7484 17.9378,68.3136 17.2307,67.7739 16.432,67.1154 15.5418,66.3223 14.5607,65.3764 13.4894,64.2568 12.3297,62.9394 11.0842,61.396 9.75764,59.5935 A 103.454,103.454 0 0 1 18.6089,44.259 v 0 l 2.2242,0.2471 1.9595,0.3064 1.7209,0.3453 1.5052,0.3677 1.3099,0.3765 1.132,0.3741 0.9697,0.3622 0.8211,0.3423 0.6842,0.3153 0.5578,0.2821 0.4407,0.2429 0.3316,0.1983 0.2295,0.1483 0.1337,0.0931 8.0551,6.2758 A 79.5798,79.5798 0 0 1 54.5219,40.6953 L 48.2442,32.6417 48.1511,32.508 48.0027,32.2785 47.8043,31.947 47.5613,31.5064 47.2792,30.9485 46.9637,30.2644 46.6212,29.4435 46.2587,28.4738 45.8844,27.3419 45.5076,26.0321 45.1396,24.527 44.7939,22.8061 44.487,20.8468 44.2394,18.6225 A 103.454,103.454 0 0 1 59.5718,9.76781 v 0 l 1.8027,1.32619 1.5438,1.2451 1.3177,1.1594 1.1198,1.071 0.9461,0.981 0.7933,0.8899 0.6587,0.7986 0.5399,0.707 0.4349,0.6151 0.3421,0.5232 0.2602,0.4307 0.188,0.3375 0.1246,0.2432 0.0693,0.1475 3.8382,9.4625 a 79.5798,79.5798 0 0 1 18.9044,-5.0681 l -1.41,-10.1135 -0.0137,-0.1623 -0.0138,-0.273 -0.0061,-0.3862 0.0099,-0.5031 0.0345,-0.6242 0.0689,-0.7502 0.1138,-0.8822 0.1709,-1.02101 0.2418,-1.16747 0.3285,-1.32265 0.4339,-1.48753 0.561,-1.66312 0.7139,-1.85033 0.8975,-2.050076 A 103.454,103.454 0 0 1 112.292,0.37825 v 0 l 0.898,2.04983 0.715,1.85013 0.561,1.66295 0.435,1.48742 0.328,1.32256 0.243,1.1674 0.171,1.02096 0.114,0.8821 0.069,0.7503 0.035,0.6241 0.01,0.5031 -0.006,0.3863 -0.014,0.2729 -0.014,0.1624 -1.407,10.1139 a 79.5798,79.5798 0 0 1 18.906,5.0628 l 3.835,-9.4636 0.07,-0.1475 0.124,-0.2433 0.188,-0.3375 0.26,-0.4308 0.342,-0.5232 0.435,-0.6153 0.54,-0.7072 0.658,-0.7987 0.793,-0.8902 0.946,-0.9812 1.119,-1.0713 1.318,-1.1598 1.543,-1.2455 1.803,-1.32671 a 103.454,103.454 0 0 1 15.335,8.85051 v 0 l -0.247,2.2243 -0.307,1.9594 -0.345,1.721 -0.368,1.5052 -0.376,1.3099 -0.374,1.132 -0.362,0.9698 -0.343,0.821 -0.315,0.6842 -0.282,0.5579 -0.243,0.4407 -0.198,0.3316 -0.148,0.2295 -0.093,0.1338 -6.276,8.0553 A 79.5798,79.5798 0 0 1 166.21,54.519 l 8.053,-6.2781 0.134,-0.0931 0.229,-0.1484 0.332,-0.1984 0.441,-0.243 0.557,-0.2822 0.685,-0.3155 0.82,-0.3426 0.97,-0.3625 1.132,-0.3744 1.31,-0.3768 1.505,-0.3681 1.721,-0.3457 1.959,-0.307 2.224,-0.2478 a 103.454,103.454 0 0 1 8.856,15.3321 v 0 l -1.326,1.8028 -1.245,1.5438 -1.16,1.3178 -1.071,1.1198 -0.981,0.9461 -0.89,0.7934 -0.798,0.6588 -0.707,0.5398 -0.615,0.435 -0.523,0.3422 -0.431,0.2602 -0.338,0.188 -0.243,0.1246 -0.147,0.0693 -9.463,3.8386 a 79.5798,79.5798 0 0 1 5.069,18.9042 l 10.114,-1.4105 0.162,-0.0138 0.273,-0.0137 0.386,-0.0061 0.504,0.0098 0.624,0.0345 0.75,0.0689 0.882,0.1137 1.021,0.1709 1.168,0.2417 1.322,0.3285 1.488,0.4338 1.663,0.5609 1.85,0.7138 2.05,0.8975 z"
             inkscape:connector-curvature="0"
             style="fill:none;stroke:#ffffff;stroke-width:7.52676962;stroke-opacity:1;stroke-miterlimit:4;stroke-dasharray:none" />
        </g>
        <g
           style="stroke:#ffffff;stroke-opacity:1;stroke-width:7.52676962;stroke-miterlimit:4;stroke-dasharray:none"
           id="g1069"
           class="lighteningHoles">
          <path
             id="path1063"
             d="m 126.367,113.454 a 25,25 0 0 1 -25.708,14.843 l -17.9088,31.024 a 59.5798,59.5798 0 0 0 79.4378,-45.867 z"
             inkscape:connector-curvature="0"
             style="fill:none;stroke:#ffffff;stroke-width:7.52676962;stroke-opacity:1;stroke-miterlimit:4;stroke-dasharray:none" />
          <path
             id="path1065"
             d="M 83.338,118.298 A 25,25 0 0 1 83.3352,88.6131 L 65.4205,57.5928 a 59.5798,59.5798 0 0 0 0.0085,91.7292 z"
             inkscape:connector-curvature="0"
             style="fill:none;stroke:#ffffff;stroke-width:7.52676962;stroke-opacity:1;stroke-miterlimit:4;stroke-dasharray:none" />
          <path
             id="path1067"
             d="m 100.655,78.611 a 25,25 0 0 1 25.71,14.8385 l 35.822,-0.0066 A 59.5798,59.5798 0 0 0 82.7398,47.5907 Z"
             inkscape:connector-curvature="0"
             style="fill:none;stroke:#ffffff;stroke-width:7.52676962;stroke-opacity:1;stroke-miterlimit:4;stroke-dasharray:none" />
        </g>
        <circle
           id="circle1071"
           r="10"
           cy="103.454"
           cx="103.454"
           style="fill:none;stroke:#ffffff;stroke-width:7.52676962;stroke-opacity:1;stroke-miterlimit:4;stroke-dasharray:none" />
        <path
           id="path1073"
           d="m 88.4538,103.454 h 30.0002 m -15,-15.0002 v 30.0002"
           inkscape:connector-curvature="0"
           style="fill:none;stroke:#ffffff;stroke-width:7.52676962;stroke-opacity:1;stroke-miterlimit:4;stroke-dasharray:none" />
      </g>
    </g>
  </g>
</svg>
